<svg width="527" height="228" viewBox="0 0 527 228" fill="none" xmlns="http://www.w3.org/2000/svg">
<path d="M24.3541 154.714C26.7579 154.714 28.6959 155.493 30.1672 157.048C31.6369 158.603 32.3729 160.697 32.3729 163.328V176.479H27.7907V163.625C27.7907 162.155 27.4224 161.015 26.6875 160.209C25.9521 159.402 24.9479 159 23.6745 159C22.2604 159 21.1355 159.467 20.3011 160.401C19.4677 161.333 19.0511 162.734 19.0511 164.6V176.479H14.4688V163.625C14.4688 162.155 14.1213 161.015 13.4287 160.209C12.7344 159.402 11.7526 159 10.4807 159C9.09375 159 7.96251 159.473 7.08593 160.42C6.20833 161.369 5.77084 162.761 5.77084 164.6V176.479H1.1875V155.267H5.77084V157.812C7.1276 155.746 9.15 154.714 11.8375 154.714C14.5536 154.714 16.5599 155.833 17.8625 158.067C19.276 155.833 21.4407 154.714 24.3541 154.714Z" fill="#040606"/>
<path d="M43.0224 170.731C44.2948 172.019 45.8921 172.661 47.8167 172.661C49.7401 172.661 51.3375 172.019 52.6109 170.731C53.8828 169.445 54.5197 167.825 54.5197 165.873C54.5197 163.921 53.8828 162.301 52.6109 161.016C51.3375 159.729 49.7401 159.084 47.8167 159.084C45.8921 159.084 44.2948 159.729 43.0224 161.016C41.7489 162.301 41.1136 163.921 41.1136 165.873C41.1136 167.825 41.7489 169.445 43.0224 170.731ZM54.5197 155.267H59.1016V176.48H54.5197V173.425C52.7948 175.829 50.3193 177.032 47.0953 177.032C44.1812 177.032 41.6917 175.949 39.6281 173.786C37.5631 171.622 36.5303 168.985 36.5303 165.873C36.5303 162.734 37.5631 160.088 39.6281 157.94C41.6917 155.791 44.1812 154.715 47.0953 154.715C50.3193 154.715 52.7948 155.904 54.5197 158.279V155.267" fill="#040606"/>
<path d="M76.03 154.714C78.4623 154.714 80.4284 155.493 81.9268 157.048C83.4258 158.603 84.1758 160.74 84.1758 163.456V176.479H79.5935V163.921C79.5935 162.337 79.1691 161.121 78.3216 160.273C77.4727 159.424 76.3128 159 74.8424 159C73.2295 159 71.9284 159.502 70.9388 160.507C69.9476 161.51 69.4528 163.045 69.4528 165.109V176.479H64.8711V155.267H69.4528V157.981C70.8388 155.802 73.031 154.714 76.03 154.714" fill="#040606"/>
<path d="M94.8256 170.731C96.098 172.019 97.696 172.661 99.6198 172.661C101.543 172.661 103.141 172.019 104.414 170.731C105.687 169.445 106.324 167.825 106.324 165.873C106.324 163.921 105.687 162.301 104.414 161.016C103.141 159.729 101.543 159.084 99.6198 159.084C97.696 159.084 96.098 159.729 94.8256 161.016C93.5522 162.301 92.9173 163.921 92.9173 165.873C92.9173 167.825 93.5522 169.445 94.8256 170.731ZM106.324 155.267H110.905V176.48H106.324V173.425C104.598 175.829 102.123 177.032 98.8985 177.032C95.985 177.032 93.4954 175.949 91.4313 173.786C89.3662 171.622 88.334 168.985 88.334 165.873C88.334 162.734 89.3662 160.088 91.4313 157.94C93.4954 155.791 95.985 154.715 98.8985 154.715C102.123 154.715 104.598 155.904 106.324 158.279V155.267" fill="#040606"/>
<path d="M122.001 170.412C123.287 171.686 124.891 172.322 126.815 172.322C128.739 172.322 130.343 171.686 131.631 170.412C132.919 169.14 133.562 167.556 133.562 165.661C133.562 163.767 132.919 162.182 131.631 160.909C130.343 159.636 128.739 159 126.815 159C124.891 159 123.287 159.636 122.001 160.909C120.713 162.182 120.07 163.767 120.07 165.661C120.07 167.556 120.713 169.14 122.001 170.412V170.412ZM133.562 155.267H138.059V175.505C138.059 178.729 136.998 181.202 134.876 182.929C132.756 184.653 130.182 185.517 127.156 185.517C122.261 185.517 118.909 183.805 117.099 180.384L121.045 178.091C122.149 180.269 124.213 181.358 127.241 181.358C129.219 181.358 130.768 180.844 131.886 179.81C133.003 178.777 133.562 177.343 133.562 175.505V172.915C131.835 175.377 129.375 176.608 126.179 176.608C123.18 176.608 120.649 175.54 118.585 173.403C116.52 171.269 115.487 168.688 115.487 165.661C115.487 162.633 116.52 160.053 118.585 157.917C120.649 155.783 123.18 154.714 126.179 154.714C129.375 154.714 131.835 155.945 133.562 158.407V155.267" fill="#040606"/>
<path d="M147.392 164.091H159.866C159.553 162.367 158.84 161.065 157.722 160.188C156.605 159.31 155.298 158.872 153.798 158.872C152.101 158.872 150.686 159.34 149.556 160.273C148.425 161.207 147.704 162.479 147.392 164.091ZM147.433 167.825C147.773 169.437 148.552 170.676 149.768 171.537C150.982 172.4 152.469 172.832 154.222 172.832C156.654 172.832 158.48 171.956 159.696 170.201L163.472 172.408C161.377 175.489 158.281 177.032 154.18 177.032C150.729 177.032 147.942 175.979 145.821 173.87C143.701 171.764 142.64 169.097 142.64 165.873C142.64 162.705 143.686 160.053 145.78 157.917C147.872 155.783 150.558 154.715 153.841 154.715C156.952 154.715 159.505 155.803 161.5 157.981C163.493 160.16 164.489 162.804 164.489 165.916C164.489 166.397 164.433 167.033 164.32 167.825H147.433Z" fill="#040606"/>
<path d="M192.111 154.714C194.515 154.714 196.452 155.493 197.924 157.048C199.393 158.603 200.129 160.697 200.129 163.328V176.479H195.547V163.625C195.547 162.155 195.179 161.015 194.444 160.209C193.708 159.402 192.705 159 191.431 159C190.017 159 188.892 159.467 188.059 160.401C187.224 161.333 186.808 162.734 186.808 164.6V176.479H182.225V163.625C182.225 162.155 181.877 161.015 181.185 160.209C180.491 159.402 179.509 159 178.237 159C176.851 159 175.719 159.473 174.843 160.42C173.965 161.369 173.528 162.761 173.528 164.6V176.479H168.945V155.267H173.528V157.812C174.885 155.746 176.907 154.714 179.593 154.714C182.311 154.714 184.317 155.833 185.619 158.067C187.033 155.833 189.197 154.714 192.111 154.714" fill="#040606"/>
<path d="M209.039 164.091H221.514C221.202 162.367 220.487 161.065 219.371 160.188C218.254 159.31 216.944 158.872 215.446 158.872C213.75 158.872 212.334 159.34 211.204 160.273C210.072 161.207 209.351 162.479 209.039 164.091ZM209.082 167.825C209.422 169.437 210.199 170.676 211.416 171.537C212.631 172.4 214.116 172.832 215.871 172.832C218.303 172.832 220.127 171.956 221.343 170.201L225.119 172.408C223.026 175.489 219.928 177.032 215.827 177.032C212.376 177.032 209.591 175.979 207.47 173.87C205.348 171.764 204.287 169.097 204.287 165.873C204.287 162.705 205.334 160.053 207.427 157.917C209.52 155.783 212.206 154.715 215.488 154.715C218.599 154.715 221.152 155.803 223.147 157.981C225.142 160.16 226.138 162.804 226.138 165.916C226.138 166.397 226.08 167.033 225.968 167.825H209.082Z" fill="#040606"/>
<path d="M241.749 154.714C244.182 154.714 246.148 155.493 247.648 157.048C249.146 158.603 249.896 160.74 249.896 163.456V176.479H245.313V163.921C245.313 162.337 244.889 161.121 244.04 160.273C243.192 159.424 242.032 159 240.561 159C238.949 159 237.649 159.502 236.657 160.507C235.668 161.51 235.173 163.045 235.173 165.109V176.479H230.592V155.267H235.173V157.981C236.558 155.802 238.752 154.714 241.749 154.714Z" fill="#040606"/>
<path d="M267.08 159.68H261.817V169.861C261.817 170.738 262.016 171.367 262.412 171.748C262.808 172.131 263.394 172.344 264.173 172.385C264.95 172.428 265.92 172.421 267.08 172.364V176.48C263.572 176.905 261.054 176.6 259.528 175.568C258 174.536 257.236 172.633 257.236 169.861V159.68H253.333V155.267H257.236V150.685L261.817 149.326V155.267H267.08V159.68" fill="#040606"/>
<path d="M11.2005 219.46C8.00417 219.46 5.33855 218.385 3.20312 216.234C1.06771 214.085 0 211.44 0 208.3C0 205.132 1.06771 202.481 3.20312 200.346C5.33855 198.211 8.00417 197.141 11.2005 197.141C13.2656 197.141 15.1473 197.637 16.8437 198.628C18.5417 199.619 19.814 200.946 20.6631 202.616L16.7161 204.907C16.236 203.888 15.5068 203.089 14.5312 202.509C13.5563 201.929 12.4313 201.639 11.1589 201.639C9.29167 201.639 7.72812 202.276 6.47031 203.549C5.21093 204.821 4.58229 206.407 4.58229 208.3C4.58229 210.196 5.21093 211.78 6.47031 213.052C7.72812 214.325 9.29167 214.963 11.1589 214.963C12.4026 214.963 13.5276 214.665 14.5312 214.07C15.5355 213.476 16.2932 212.685 16.8021 211.695L20.7473 213.944C19.8427 215.64 18.5417 216.984 16.8437 217.974C15.1473 218.964 13.2656 219.46 11.2005 219.46Z" fill="#040606"/>
<path d="M29.4459 213.095C30.7178 214.368 32.2881 215.004 34.1553 215.004C36.0209 215.004 37.5913 214.368 38.8637 213.095C40.137 211.821 40.7741 210.225 40.7741 208.3C40.7741 206.377 40.137 204.78 38.8637 203.507C37.5913 202.233 36.0209 201.597 34.1553 201.597C32.2881 201.597 30.7178 202.233 29.4459 203.507C28.1725 204.78 27.5365 206.377 27.5365 208.3C27.5365 210.225 28.1725 211.821 29.4459 213.095V213.095ZM34.1553 219.46C31.0433 219.46 28.3985 218.385 26.2203 216.234C24.0418 214.085 22.9531 211.44 22.9531 208.3C22.9531 205.162 24.0418 202.517 26.2203 200.367C28.3985 198.217 31.0433 197.141 34.1553 197.141C37.2949 197.141 39.9459 198.217 42.1094 200.367C44.2741 202.517 45.3558 205.162 45.3558 208.3C45.3558 211.44 44.2741 214.085 42.1094 216.234C39.9459 218.385 37.2949 219.46 34.1553 219.46" fill="#040606"/>
<path d="M73.1031 197.141C75.5068 197.141 77.4443 197.92 78.9156 199.476C80.3855 201.031 81.1214 203.125 81.1214 205.755V218.908H76.5396V206.052C76.5396 204.581 76.1724 203.443 75.4364 202.636C74.7011 201.831 73.697 201.426 72.4235 201.426C71.0094 201.426 69.8855 201.895 69.0511 202.828C68.2162 203.761 67.7995 205.161 67.7995 207.026V218.908H63.2178V206.052C63.2178 204.581 62.8698 203.443 62.1787 202.636C61.485 201.831 60.5016 201.426 59.2298 201.426C57.8427 201.426 56.7115 201.901 55.835 202.849C54.9584 203.797 54.5198 205.189 54.5198 207.026V218.908H49.9375V197.693H54.5198V200.24C55.8782 198.176 57.8984 197.141 60.586 197.141C63.3022 197.141 65.3099 198.26 66.611 200.495C68.026 198.26 70.1891 197.141 73.1031 197.141Z" fill="#040606"/>
<path d="M92.9584 213.158C94.2318 214.446 95.8298 215.088 97.7527 215.088C99.6771 215.088 101.275 214.446 102.547 213.158C103.82 211.872 104.457 210.252 104.457 208.3C104.457 206.349 103.82 204.731 102.547 203.443C101.275 202.156 99.6771 201.513 97.7527 201.513C95.8298 201.513 94.2318 202.156 92.9584 203.443C91.6864 204.731 91.0495 206.349 91.0495 208.3C91.0495 210.252 91.6864 211.872 92.9584 213.158V213.158ZM98.474 197.141C101.387 197.141 103.877 198.224 105.942 200.388C108.007 202.552 109.04 205.189 109.04 208.3C109.04 211.44 108.007 214.085 105.942 216.234C103.877 218.385 101.387 219.46 98.474 219.46C95.2506 219.46 92.7751 218.27 91.0495 215.896V227.393H86.4678V197.693H91.0495V200.748C92.7751 198.345 95.2506 197.141 98.474 197.141" fill="#040606"/>
<path d="M118.925 213.158C120.197 214.446 121.795 215.088 123.719 215.088C125.642 215.088 127.24 214.446 128.513 213.158C129.786 211.872 130.422 210.252 130.422 208.3C130.422 206.349 129.786 204.731 128.513 203.443C127.24 202.156 125.642 201.513 123.719 201.513C121.795 201.513 120.197 202.156 118.925 203.443C117.652 204.731 117.016 206.349 117.016 208.3C117.016 210.252 117.652 211.872 118.925 213.158V213.158ZM130.422 197.693H135.004V218.908H130.422V215.853C128.697 218.257 126.222 219.46 122.998 219.46C120.084 219.46 117.594 218.377 115.531 216.213C113.465 214.049 112.433 211.412 112.433 208.3C112.433 205.162 113.465 202.517 115.531 200.367C117.594 198.217 120.084 197.141 122.998 197.141C126.222 197.141 128.697 198.331 130.422 200.705V197.693" fill="#040606"/>
<path d="M151.932 197.141C154.365 197.141 156.331 197.92 157.829 199.476C159.328 201.031 160.079 203.167 160.079 205.882V218.908H155.496V206.349C155.496 204.765 155.072 203.549 154.224 202.7C153.375 201.852 152.215 201.426 150.745 201.426C149.133 201.426 147.831 201.929 146.841 202.933C145.851 203.937 145.356 205.472 145.356 207.536V218.908H140.773V197.693H145.356V200.408C146.743 198.232 148.933 197.141 151.932 197.141" fill="#040606"/>
<path d="M179.299 197.693H184.178L176.032 219.585C173.995 225.075 170.543 227.676 165.679 227.393V223.108C167.122 223.192 168.28 222.888 169.158 222.196C170.035 221.503 170.756 220.42 171.322 218.951L171.535 218.525L162.539 197.693H167.546L173.872 213.093L179.299 197.693" fill="#040606"/>
<path d="M48.1098 78.7814H84.7755C83.8588 73.7107 81.7598 69.8854 78.477 67.3067C75.1922 64.732 71.3468 63.4427 66.9411 63.4427C61.9526 63.4427 57.7952 64.812 54.4707 67.5574C51.1436 70.3 49.0244 74.0427 48.1098 78.7814V78.7814ZM48.2354 89.7561C49.2322 94.4959 51.5176 98.1319 55.0942 100.668C58.6676 103.205 63.0332 104.472 68.1879 104.472C75.3379 104.472 80.7015 101.896 84.2764 96.7402L95.3755 103.225C89.2218 112.288 80.1182 116.817 68.0635 116.817C57.9198 116.817 49.7311 113.722 43.4958 107.527C37.2598 101.334 34.1426 93.4974 34.1426 84.0201C34.1426 74.7094 37.2166 66.9147 43.3718 60.6347C49.5228 54.3587 57.4198 51.2201 67.0655 51.2201C76.2103 51.2201 83.7155 54.4214 89.5775 60.8227C95.4379 67.2267 98.3692 75 98.3692 84.1427C98.3692 85.5587 98.2015 87.4294 97.8692 89.7561H48.2354" fill="#040606"/>
<path d="M136.454 65.8108H120.991V95.7429C120.991 98.32 121.572 100.169 122.736 101.292C123.898 102.413 125.624 103.037 127.912 103.163C130.197 103.287 133.045 103.268 136.454 103.1V115.196C126.143 116.444 118.746 115.549 114.255 112.516C109.765 109.481 107.521 103.891 107.521 95.7429V40.6694L120.991 34.0854V52.8414H136.454V65.8108" fill="#040606"/>
<path d="M12.0964 117.69C12.0964 122.013 11.1187 125.049 9.16563 126.796C7.21251 128.541 4.15625 129.205 0 128.79V141.76C17.0432 143.008 25.5667 134.983 25.5667 117.69V52.8411H12.0964V117.69Z" fill="#040606"/>
<path d="M146.854 115.196H160.321V52.8413H146.854V115.196Z" fill="#040606"/>
<path d="M27.4364 32.0641C27.4364 36.8174 23.5839 40.6694 18.8307 40.6694C14.0797 40.6694 10.2266 36.8174 10.2266 32.0641C10.2266 27.3121 14.0797 23.4601 18.8307 23.4601C23.5839 23.4601 27.4364 27.3121 27.4364 32.0641Z" fill="#040606"/>
<path d="M162.193 8.60513C162.193 13.3571 158.34 17.2104 153.588 17.2104C148.836 17.2104 144.982 13.3571 144.982 8.60513C144.982 3.85313 148.836 -0.000210563 153.588 -0.000210563C158.34 -0.000210563 162.193 3.85313 162.193 8.60513Z" fill="#040606"/>
<path d="M279.231 69.9681C279.231 72.0201 280.383 73.6427 282.685 74.8307C284.989 76.0214 287.755 77.1134 290.979 78.1067C294.204 79.1014 297.508 80.12 300.893 81.1627C304.279 82.204 307.105 84.1347 309.373 86.9521C311.643 89.7694 312.779 93.324 312.779 97.6131C312.779 103.599 310.471 108.298 305.857 111.705C301.243 115.116 295.443 116.817 288.46 116.817C282.307 116.817 277.027 115.528 272.621 112.952C268.212 110.376 265.013 106.799 263.019 102.228L274.616 95.4918C276.777 101.479 281.392 104.472 288.46 104.472C295.525 104.472 299.06 102.143 299.06 97.4866C299.06 95.4907 297.917 93.868 295.631 92.6227C293.343 91.3747 290.588 90.2534 287.363 89.2614C284.137 88.2667 280.832 87.2481 277.447 86.2054C274.064 85.1654 271.227 83.2934 268.941 80.5881C266.653 77.8881 265.512 74.4601 265.512 70.3001C265.512 64.5654 267.696 59.9507 272.06 56.4587C276.425 52.9654 281.849 51.2201 288.333 51.2201C293.488 51.2201 298.083 52.3641 302.115 54.6494C306.147 56.9374 309.243 60.1174 311.407 64.1894L300.057 70.5507C297.895 65.8107 293.987 63.4427 288.333 63.4427C285.757 63.4427 283.595 63.9974 281.849 65.1041C280.104 66.2134 279.231 67.8347 279.231 69.9681" fill="#040606"/>
<path d="M502.167 51.2199C509.316 51.2199 515.093 53.5079 519.502 58.0786C523.908 62.6519 526.111 68.9279 526.111 76.9093V115.196H512.643V78.2826C512.643 73.6279 511.395 70.0506 508.901 67.5573C506.407 65.0626 502.996 63.8159 498.675 63.8159C493.935 63.8159 490.111 65.2933 487.203 68.2426C484.291 71.1946 482.836 75.7053 482.836 81.7746V115.196H469.368V52.8413H481.015L482.51 59.3893C482.63 59.9173 483.323 60.0773 483.643 59.6399C487.739 54.0266 493.913 51.2199 502.167 51.2199Z" fill="#040606"/>
<path d="M222.264 103.948C211.26 103.948 202.336 95.0241 202.336 84.0201C202.336 73.0134 211.26 64.0907 222.264 64.0907C233.27 64.0907 242.193 73.0134 242.193 84.0201C242.193 95.0241 233.27 103.948 222.264 103.948ZM242.253 60.3214C242.142 60.8601 241.461 61.008 241.116 60.5787C236.093 54.34 229.102 51.2201 220.145 51.2201C211.581 51.2201 204.262 54.3801 198.196 60.6987C192.125 67.0187 189.092 74.7907 189.092 84.0201C189.092 93.1654 192.125 100.917 198.196 107.279C204.262 113.637 211.581 116.817 220.145 116.817C229.101 116.817 236.092 113.663 241.113 107.352C241.457 106.917 242.142 107.067 242.252 107.608L243.792 115.196H255.437V52.8414H243.792L242.253 60.3214Z" fill="#040606"/>
<path d="M354.153 103.948C343.149 103.948 334.225 95.024 334.225 84.02C334.225 73.0133 343.149 64.0907 354.153 64.0907C365.16 64.0907 374.083 73.0133 374.083 84.02C374.083 95.024 365.16 103.948 354.153 103.948ZM356.273 51.22C347.317 51.22 340.327 54.376 335.307 60.6867C334.963 61.12 334.277 60.9707 334.167 60.4293L332.628 52.8413H320.981V140.139H334.449V108.208C334.449 107.613 335.195 107.334 335.575 107.792C340.575 113.809 347.477 116.817 356.273 116.817C364.836 116.817 372.153 113.658 378.223 107.34C384.291 101.023 387.327 93.2467 387.327 84.02C387.327 74.8733 384.291 67.1213 378.223 60.76C372.153 54.4013 364.836 51.22 356.273 51.22Z" fill="#040606"/>
<path d="M425.584 103.948C414.578 103.948 405.655 95.0241 405.655 84.0201C405.655 73.0134 414.578 64.0907 425.584 64.0907C436.591 64.0907 445.512 73.0134 445.512 84.0201C445.512 95.0241 436.591 103.948 425.584 103.948ZM447.111 52.8414L445.572 60.3214C445.462 60.8601 444.78 61.008 444.435 60.5787C439.414 54.34 432.423 51.2201 423.464 51.2201C414.9 51.2201 407.583 54.3801 401.515 60.6987C395.444 67.0187 392.411 74.7907 392.411 84.0201C392.411 93.1654 395.444 100.917 401.515 107.279C407.583 113.637 414.9 116.817 423.464 116.817C432.422 116.817 439.411 113.663 444.432 107.352C444.776 106.917 445.462 107.067 445.571 107.608L447.111 115.196H458.758V52.8414H447.111Z" fill="#040606"/>
</svg>
